<svg width="18" height="11" viewBox="0 0 18 11" fill="none" xmlns="http://www.w3.org/2000/svg">
<path d="M8.98994 10.0991C8.77814 10.0972 8.57535 10.0132 8.42434 9.86469L0.424337 1.86469C0.278611 1.71381 0.197976 1.51172 0.199798 1.30197C0.201621 1.09221 0.285756 0.89156 0.434083 0.743234C0.582409 0.594907 0.783059 0.510772 0.992816 0.508949C1.20257 0.507126 1.40466 0.587762 1.55554 0.733489L8.98994 8.16789L16.4243 0.733489C16.4981 0.65708 16.5864 0.596134 16.684 0.554207C16.7816 0.51228 16.8866 0.490211 16.9928 0.489288C17.099 0.488365 17.2044 0.508606 17.3027 0.548831C17.401 0.589056 17.4903 0.648458 17.5655 0.723572C17.6406 0.798686 17.7 0.888008 17.7402 0.986325C17.7804 1.08464 17.8007 1.18999 17.7997 1.29621C17.7988 1.40243 17.7767 1.50741 17.7348 1.60501C17.6929 1.70262 17.6319 1.79089 17.5555 1.86469L9.55554 9.86469C9.40453 10.0132 9.20173 10.0972 8.98994 10.0991Z" fill="#B9BBBD"/>
</svg>
