<svg width="20" height="20" viewBox="0 0 20 20" fill="none" xmlns="http://www.w3.org/2000/svg">
<path d="M5 17.5001H15C15.663 17.5001 16.2989 17.2367 16.7678 16.7679C17.2366 16.299 17.5 15.6631 17.5 15.0001V5.00008C17.5 4.33704 17.2366 3.70116 16.7678 3.23231C16.2989 2.76347 15.663 2.50008 15 2.50008H14.1667C14.1667 2.27907 14.0789 2.06711 13.9226 1.91083C13.7663 1.75455 13.5543 1.66675 13.3333 1.66675C13.1123 1.66675 12.9004 1.75455 12.7441 1.91083C12.5878 2.06711 12.5 2.27907 12.5 2.50008H7.5C7.5 2.27907 7.4122 2.06711 7.25592 1.91083C7.09964 1.75455 6.88768 1.66675 6.66667 1.66675C6.44565 1.66675 6.23369 1.75455 6.07741 1.91083C5.92113 2.06711 5.83333 2.27907 5.83333 2.50008H5C4.33696 2.50008 3.70107 2.76347 3.23223 3.23231C2.76339 3.70116 2.5 4.33704 2.5 5.00008V15.0001C2.5 15.6631 2.76339 16.299 3.23223 16.7679C3.70107 17.2367 4.33696 17.5001 5 17.5001ZM4.16667 5.00008C4.16667 4.77907 4.25446 4.56711 4.41074 4.41083C4.56702 4.25455 4.77899 4.16675 5 4.16675H5.83333V5.00008C5.83333 5.2211 5.92113 5.43306 6.07741 5.58934C6.23369 5.74562 6.44565 5.83342 6.66667 5.83342C6.88768 5.83342 7.09964 5.74562 7.25592 5.58934C7.4122 5.43306 7.5 5.2211 7.5 5.00008V4.16675H12.5V5.00008C12.5 5.2211 12.5878 5.43306 12.7441 5.58934C12.9004 5.74562 13.1123 5.83342 13.3333 5.83342C13.5543 5.83342 13.7663 5.74562 13.9226 5.58934C14.0789 5.43306 14.1667 5.2211 14.1667 5.00008V4.16675H15C15.221 4.16675 15.433 4.25455 15.5893 4.41083C15.7455 4.56711 15.8333 4.77907 15.8333 5.00008V7.50008H4.16667V5.00008ZM4.16667 9.16675H15.8333V15.0001C15.8333 15.2211 15.7455 15.4331 15.5893 15.5893C15.433 15.7456 15.221 15.8334 15 15.8334H5C4.77899 15.8334 4.56702 15.7456 4.41074 15.5893C4.25446 15.4331 4.16667 15.2211 4.16667 15.0001V9.16675Z" fill="#00B074"/>
</svg>
