<svg width="16" height="17" viewBox="0 0 16 17" fill="none" xmlns="http://www.w3.org/2000/svg">
<path d="M3 16.5001H13C13.663 16.5001 14.2989 16.2367 14.7678 15.7679C15.2366 15.299 15.5 14.6631 15.5 14.0001V4.00008C15.5 3.33704 15.2366 2.70116 14.7678 2.23231C14.2989 1.76347 13.663 1.50008 13 1.50008H12.1667C12.1667 1.27907 12.0789 1.06711 11.9226 0.910826C11.7663 0.754545 11.5543 0.666748 11.3333 0.666748C11.1123 0.666748 10.9004 0.754545 10.7441 0.910826C10.5878 1.06711 10.5 1.27907 10.5 1.50008H5.5C5.5 1.27907 5.4122 1.06711 5.25592 0.910826C5.09964 0.754545 4.88768 0.666748 4.66667 0.666748C4.44565 0.666748 4.23369 0.754545 4.07741 0.910826C3.92113 1.06711 3.83333 1.27907 3.83333 1.50008H3C2.33696 1.50008 1.70107 1.76347 1.23223 2.23231C0.763392 2.70116 0.5 3.33704 0.5 4.00008V14.0001C0.5 14.6631 0.763392 15.299 1.23223 15.7679C1.70107 16.2367 2.33696 16.5001 3 16.5001ZM2.16667 4.00008C2.16667 3.77907 2.25446 3.56711 2.41074 3.41083C2.56702 3.25455 2.77899 3.16675 3 3.16675H3.83333V4.00008C3.83333 4.2211 3.92113 4.43306 4.07741 4.58934C4.23369 4.74562 4.44565 4.83342 4.66667 4.83342C4.88768 4.83342 5.09964 4.74562 5.25592 4.58934C5.4122 4.43306 5.5 4.2211 5.5 4.00008V3.16675H10.5V4.00008C10.5 4.2211 10.5878 4.43306 10.7441 4.58934C10.9004 4.74562 11.1123 4.83342 11.3333 4.83342C11.5543 4.83342 11.7663 4.74562 11.9226 4.58934C12.0789 4.43306 12.1667 4.2211 12.1667 4.00008V3.16675H13C13.221 3.16675 13.433 3.25455 13.5893 3.41083C13.7455 3.56711 13.8333 3.77907 13.8333 4.00008V6.50008H2.16667V4.00008ZM2.16667 8.16675H13.8333V14.0001C13.8333 14.2211 13.7455 14.4331 13.5893 14.5893C13.433 14.7456 13.221 14.8334 13 14.8334H3C2.77899 14.8334 2.56702 14.7456 2.41074 14.5893C2.25446 14.4331 2.16667 14.2211 2.16667 14.0001V8.16675Z" fill="#464255"/>
</svg>
